PathFileType	4	(X/Y/Z)	Gait_norma_markers.trc
DataRate	CameraRate	NumFrames	NumMarkers	Units	OrigDataRate	OrigDataStartFrame	OrigNumFrames
100	100	10	38	m	100	46	90
Frame#	Time	RASI			RPSI			LPSI			LASI			RTROCH			RTHI			RTHI2			RTHI3			RTHI4			RKNE			RKNEM			RTIB			RTIB2			RTIB3			RTIB4			RANK			RANKM			RHEE			RTOE			RTOEL			RTOEM			LTROCH			LTHI			LTHI2			LTHI3			LTHI4			LKNE			LKNEM			LTIB			LTIB2			LTIB3			LTIB4			LANK			LANKM			LHEE			LTOE			LTOEL			LTOEM
		X1	Y1	Z1	X2	Y2	Z2	X3	Y3	Z3	X4	Y4	Z4	X5	Y5	Z5	X6	Y6	Z6	X7	Y7	Z7	X8	Y8	Z8	X9	Y9	Z9	X10	Y10	Z10	X11	Y11	Z11	X12	Y12	Z12	X13	Y13	Z13	X14	Y14	Z14	X15	Y15	Z15	X16	Y16	Z16	X17	Y17	Z17	X18	Y18	Z18	X19	Y19	Z19	X20	Y20	Z20	X21	Y21	Z21	X22	Y22	Z22	X23	Y23	Z23	X24	Y24	Z24	X25	Y25	Z25	X26	Y26	Z26	X27	Y27	Z27	X28	Y28	Z28	X29	Y29	Z29	X30	Y30	Z30	X31	Y31	Z31	X32	Y32	Z32	X33	Y33	Z33	X34	Y34	Z34	X35	Y35	Z35	X36	Y36	Z36	X37	Y37	Z37	X38	Y38	Z38

46	0.450000	-0.316245	0.979026	-0.385727	-0.260241	1.010015	-0.574000	-0.163964	0.998897	-0.568174	-0.091653	0.983010	-0.383356	-0.377880	0.902311	-0.439863	-0.390893	0.785882	-0.404811	-0.382315	0.811884	-0.344280	-0.382585	0.740268	-0.302847	-0.391517	0.708906	-0.359843	-0.378640	0.569930	-0.296059	-0.263312	0.580510	-0.270199	-0.387008	0.460431	-0.359332	-0.363269	0.426998	-0.310360	-0.352549	0.356630	-0.358530	-0.375365	0.394177	-0.406566	-0.302705	0.226108	-0.533794	-0.239844	0.213727	-0.486068	-0.243399	0.207068	-0.598546	-0.330603	0.093955	-0.412025	-0.367718	0.100222	-0.481776	-0.272024	0.077036	-0.423459	-0.043330	0.909891	-0.460983	-0.043477	0.705677	-0.427502	-0.055252	0.705493	-0.366330	-0.069464	0.623994	-0.370563	-0.058038	0.618824	-0.433639	-0.080769	0.530263	-0.411927	-0.188186	0.550196	-0.407739	-0.069766	0.309895	-0.462995	-0.093076	0.312001	-0.403104	-0.106247	0.226096	-0.417415	-0.083744	0.229240	-0.475366	-0.115150	0.096375	-0.484645	-0.188228	0.121141	-0.450504	-0.167884	0.057077	-0.538643	-0.120907	0.058642	-0.305698	-0.073150	0.043538	-0.357264	-0.174631	0.053162	-0.320515
47	0.460000	-0.315501	0.979430	-0.374619	-0.260206	1.009237	-0.562401	-0.164604	0.998927	-0.557818	-0.090935	0.982927	-0.373345	-0.377529	0.902794	-0.427176	-0.390126	0.786411	-0.390657	-0.381151	0.813681	-0.330403	-0.380953	0.742367	-0.288354	-0.391402	0.712051	-0.347770	-0.376665	0.571979	-0.279852	-0.261785	0.582676	-0.256081	-0.385827	0.458817	-0.339609	-0.361431	0.428030	-0.289569	-0.351898	0.355366	-0.333498	-0.374600	0.390604	-0.383876	-0.303500	0.215472	-0.502521	-0.240618	0.205718	-0.454925	-0.244758	0.193193	-0.566976	-0.330706	0.090028	-0.373686	-0.368204	0.092406	-0.443297	-0.272228	0.072450	-0.384375	-0.043411	0.910114	-0.452076	-0.043425	0.705746	-0.420801	-0.054474	0.705021	-0.359619	-0.069294	0.623490	-0.364983	-0.058114	0.619220	-0.428257	-0.080334	0.530045	-0.407990	-0.187333	0.549672	-0.402487	-0.069742	0.310312	-0.461434	-0.092589	0.311911	-0.401294	-0.105788	0.225843	-0.416221	-0.083890	0.229552	-0.474301	-0.115211	0.096696	-0.484345	-0.188310	0.121196	-0.450131	-0.167865	0.057123	-0.538479	-0.120472	0.058603	-0.305485	-0.073099	0.043503	-0.357234	-0.174540	0.053064	-0.320394
48	0.470000	-0.314733	0.979159	-0.363458	-0.261212	1.009912	-0.552289	-0.165193	0.998957	-0.547428	-0.090116	0.982846	-0.363371	-0.377245	0.902777	-0.415321	-0.389391	0.786603	-0.377047	-0.380017	0.814956	-0.317055	-0.379405	0.744049	-0.274562	-0.389398	0.711402	-0.329483	-0.374850	0.573427	-0.264675	-0.260298	0.584196	-0.242889	-0.384454	0.457085	-0.320722	-0.360056	0.428436	-0.269485	-0.350061	0.353289	-0.309819	-0.373820	0.386323	-0.361361	-0.304586	0.204472	-0.470790	-0.241438	0.197054	-0.423249	-0.246386	0.178399	-0.534649	-0.331113	0.086420	-0.334758	-0.369233	0.084942	-0.404155	-0.273459	0.069388	-0.343729	-0.043430	0.910198	-0.443031	-0.043362	0.705820	-0.414008	-0.054668	0.704168	-0.352911	-0.069285	0.622802	-0.359354	-0.058393	0.619455	-0.422760	-0.080116	0.529851	-0.403991	-0.187131	0.549488	-0.397755	-0.069879	0.310570	-0.459608	-0.092232	0.311547	-0.399373	-0.105399	0.225832	-0.415053	-0.083852	0.230032	-0.473136	-0.115345	0.097016	-0.484004	-0.188071	0.121842	-0.449929	-0.168258	0.056249	-0.537973	-0.120437	0.058279	-0.305319	-0.073069	0.043367	-0.357353	-0.174751	0.052702	-0.320095
49	0.480000	-0.314227	0.979135	-0.352322	-0.261734	1.009743	-0.541430	-0.165754	0.998806	-0.536825	-0.089677	0.982664	-0.352657	-0.377063	0.902430	-0.403637	-0.389254	0.787104	-0.364170	-0.378989	0.815245	-0.304606	-0.377190	0.744984	-0.260923	-0.389210	0.714133	-0.319838	-0.371745	0.574375	-0.248836	-0.258982	0.585355	-0.230584	-0.383156	0.455053	-0.302193	-0.362205	0.430124	-0.248446	-0.350437	0.351729	-0.285840	-0.373366	0.381909	-0.339082	-0.305639	0.192998	-0.438048	-0.243084	0.188216	-0.390905	-0.248018	0.162901	-0.500461	-0.331896	0.083125	-0.295464	-0.370609	0.078021	-0.364271	-0.274448	0.065455	-0.303421	-0.043554	0.910062	-0.433921	-0.043384	0.705883	-0.407278	-0.054615	0.703255	-0.346109	-0.069186	0.622167	-0.353478	-0.058536	0.619516	-0.416957	-0.079987	0.529485	-0.399857	-0.187458	0.549763	-0.393485	-0.069993	0.311034	-0.457843	-0.092148	0.311329	-0.397220	-0.105333	0.225705	-0.413670	-0.083887	0.230591	-0.471778	-0.115503	0.097393	-0.483640	-0.188904	0.122111	-0.450552	-0.168317	0.056411	-0.537873	-0.120385	0.058047	-0.305174	-0.073026	0.043325	-0.357262	-0.174339	0.053082	-0.319484
50	0.490000	-0.313709	0.978618	-0.341136	-0.262281	1.009377	-0.530387	-0.166200	0.998572	-0.526058	-0.088783	0.981970	-0.343112	-0.376881	0.901881	-0.392221	-0.388371	0.786706	-0.351154	-0.377954	0.815472	-0.292059	-0.375815	0.745171	-0.248313	-0.388089	0.714439	-0.306998	-0.368885	0.575340	-0.234731	-0.257227	0.585489	-0.218598	-0.381445	0.452529	-0.284931	-0.360194	0.431712	-0.228549	-0.350509	0.350343	-0.261855	-0.372683	0.377452	-0.317243	-0.306937	0.181779	-0.404868	-0.243683	0.179263	-0.357173	-0.249708	0.147412	-0.465491	-0.333086	0.080704	-0.255775	-0.372183	0.071640	-0.323693	-0.275795	0.062018	-0.262744	-0.043563	0.909830	-0.424665	-0.043863	0.705074	-0.399214	-0.054527	0.702600	-0.339028	-0.069169	0.620974	-0.348075	-0.058705	0.619606	-0.411201	-0.079840	0.529149	-0.395596	-0.187683	0.549448	-0.388955	-0.070167	0.311240	-0.455665	-0.092078	0.311119	-0.395148	-0.105097	0.225678	-0.412198	-0.083932	0.230948	-0.470285	-0.115679	0.097718	-0.483237	-0.189146	0.121725	-0.449473	-0.168367	0.056566	-0.537724	-0.120378	0.057778	-0.305020	-0.072986	0.043268	-0.357151	-0.174318	0.052865	-0.319290
51	0.500000	-0.310183	0.980044	-0.325594	-0.262401	1.008533	-0.518858	-0.166648	0.998291	-0.515380	-0.088239	0.981159	-0.332810	-0.376589	0.900942	-0.380784	-0.387740	0.786087	-0.339061	-0.376953	0.815232	-0.279435	-0.374613	0.744916	-0.236109	-0.386981	0.714185	-0.294663	-0.366366	0.575112	-0.222375	-0.255286	0.585266	-0.207315	-0.379692	0.449226	-0.267708	-0.359247	0.431497	-0.210459	-0.349991	0.348718	-0.238415	-0.371866	0.372362	-0.295893	-0.308043	0.170471	-0.370805	-0.244995	0.170264	-0.323338	-0.251472	0.130297	-0.427497	-0.334661	0.079163	-0.215569	-0.374117	0.065970	-0.282954	-0.277756	0.059016	-0.221748	-0.043535	0.909569	-0.415285	-0.043608	0.706362	-0.394362	-0.054755	0.701593	-0.332244	-0.069403	0.620176	-0.342287	-0.058836	0.619375	-0.405188	-0.080163	0.528947	-0.391163	-0.187421	0.549289	-0.384251	-0.070301	0.311338	-0.453383	-0.092216	0.310979	-0.393013	-0.105366	0.225498	-0.410588	-0.084104	0.231330	-0.468879	-0.115819	0.098143	-0.482894	-0.189329	0.121854	-0.449038	-0.168456	0.056672	-0.537607	-0.120403	0.057356	-0.305111	-0.072968	0.043240	-0.357095	-0.174042	0.053030	-0.319003
52	0.510000	-0.312739	0.976733	-0.318772	-0.262720	1.007848	-0.507639	-0.167013	0.997839	-0.504616	-0.087467	0.979907	-0.322278	-0.376368	0.899970	-0.369517	-0.387381	0.785294	-0.327624	-0.376152	0.814427	-0.267935	-0.372759	0.744251	-0.224638	-0.385819	0.713332	-0.283141	-0.363483	0.574357	-0.210577	-0.252994	0.584290	-0.196755	-0.378254	0.445625	-0.251530	-0.357560	0.431075	-0.193035	-0.349433	0.346531	-0.215803	-0.370977	0.366885	-0.274649	-0.309833	0.159676	-0.336924	-0.246390	0.161571	-0.288765	-0.253713	0.115753	-0.391161	-0.336530	0.077883	-0.175796	-0.376285	0.060990	-0.241841	-0.279663	0.056306	-0.180916	-0.043558	0.909059	-0.405547	-0.043523	0.705958	-0.386988	-0.054894	0.700397	-0.325320	-0.069830	0.619161	-0.336522	-0.058880	0.619362	-0.399302	-0.079788	0.528525	-0.387062	-0.185840	0.548883	-0.378657	-0.070270	0.311623	-0.451321	-0.091147	0.310967	-0.390140	-0.105298	0.225249	-0.409002	-0.084027	0.231690	-0.467306	-0.115878	0.098649	-0.482540	-0.189523	0.121968	-0.448629	-0.168264	0.057695	-0.538178	-0.120274	0.057112	-0.304915	-0.072859	0.043285	-0.356883	-0.173625	0.053120	-0.319042
53	0.520000	-0.312374	0.975539	-0.307454	-0.263121	1.006998	-0.496519	-0.167321	0.997168	-0.493610	-0.087307	0.978954	-0.311806	-0.376210	0.898744	-0.358264	-0.386695	0.784169	-0.316253	-0.375246	0.813072	-0.256432	-0.371467	0.742708	-0.213817	-0.384433	0.711949	-0.272065	-0.360890	0.572700	-0.200353	-0.250666	0.582620	-0.187144	-0.376417	0.441280	-0.235695	-0.356037	0.430184	-0.176369	-0.348908	0.344457	-0.193773	-0.370620	0.361254	-0.253832	-0.311753	0.149850	-0.301924	-0.247837	0.153609	-0.253722	-0.255812	0.101836	-0.353210	-0.338601	0.077802	-0.135815	-0.378605	0.057112	-0.200641	-0.281739	0.055436	-0.139713	-0.043381	0.908525	-0.395611	-0.043401	0.705457	-0.379602	-0.054780	0.699433	-0.318198	-0.069966	0.618224	-0.330672	-0.058842	0.619365	-0.393421	-0.079639	0.528096	-0.382696	-0.186757	0.548364	-0.374746	-0.070537	0.311966	-0.449502	-0.091689	0.310502	-0.388483	-0.104662	0.225246	-0.407655	-0.084022	0.232179	-0.466003	-0.115971	0.099103	-0.482205	-0.189682	0.122084	-0.448235	-0.168325	0.057866	-0.538086	-0.120168	0.056843	-0.304708	-0.072864	0.043159	-0.356950	-0.173898	0.052662	-0.318955
54	0.530000	-0.312088	0.973885	-0.295948	-0.263782	1.006552	-0.485790	-0.167494	0.996310	-0.482640	-0.086881	0.977681	-0.300955	-0.375967	0.897233	-0.346954	-0.386032	0.782192	-0.305079	-0.374552	0.810796	-0.245935	-0.370237	0.740637	-0.203133	-0.382945	0.710149	-0.261712	-0.357833	0.570549	-0.190457	-0.248142	0.580393	-0.178263	-0.374548	0.436625	-0.220535	-0.354126	0.429305	-0.160454	-0.348135	0.342358	-0.172152	-0.369852	0.355474	-0.233429	-0.312987	0.140347	-0.266026	-0.249278	0.146739	-0.218430	-0.257930	0.088704	-0.314390	-0.340343	0.079008	-0.095682	-0.380752	0.055221	-0.159325	-0.284049	0.056033	-0.098339	-0.042990	0.907898	-0.385326	-0.043243	0.705121	-0.372230	-0.056063	0.698641	-0.310429	-0.070507	0.617693	-0.324160	-0.058664	0.619007	-0.387143	-0.079595	0.527794	-0.378378	-0.186549	0.547774	-0.369985	-0.070515	0.312201	-0.447086	-0.091039	0.310322	-0.386462	-0.104351	0.225243	-0.406201	-0.084276	0.232523	-0.464598	-0.116151	0.099427	-0.481821	-0.189882	0.122195	-0.447884	-0.168390	0.058059	-0.537971	-0.120147	0.056629	-0.304568	-0.072841	0.043111	-0.356894	-0.173967	0.052427	-0.318897
55	0.540000	-0.311871	0.972530	-0.284388	-0.263580	1.004529	-0.473594	-0.167688	0.995291	-0.471584	-0.086722	0.976144	-0.290100	-0.375913	0.895495	-0.335788	-0.385323	0.780112	-0.294797	-0.373953	0.808577	-0.234907	-0.368656	0.738055	-0.192894	-0.381455	0.707751	-0.251753	-0.355061	0.567669	-0.181639	-0.244716	0.578101	-0.169924	-0.372950	0.431635	-0.205967	-0.352031	0.428196	-0.145403	-0.347120	0.340610	-0.151047	-0.369501	0.350353	-0.213453	-0.314607	0.132163	-0.230125	-0.250605	0.140659	-0.183034	-0.260150	0.076845	-0.275034	-0.341894	0.082491	-0.055966	-0.382817	0.054831	-0.117419	-0.285872	0.058875	-0.056830	-0.042691	0.906984	-0.374848	-0.043006	0.704428	-0.364509	-0.055032	0.697183	-0.304092	-0.070401	0.616075	-0.318317	-0.058614	0.618787	-0.381013	-0.079362	0.527062	-0.373660	-0.185273	0.546868	-0.364368	-0.070613	0.312465	-0.444851	-0.091687	0.309433	-0.384219	-0.104363	0.225089	-0.404651	-0.084251	0.232903	-0.462956	-0.116273	0.099714	-0.481293	-0.190138	0.122363	-0.447532	-0.168478	0.058251	-0.537850	-0.120081	0.056365	-0.304416	-0.072827	0.043104	-0.356857	-0.174112	0.051862	-0.318579
